<svg width="140" height="32" viewBox="0 0 140 32" fill="none" xmlns="http://www.w3.org/2000/svg">
  <path d="M52.5 10.1H57.3L65.3 26.1H60.5L58.9 22.5H50.8L49.2 26.1H44.5L52.5 10.1ZM57.6 19.2L54.9 12.8L52.1 19.2H57.6Z" fill="#0f2b5b"/>
  <path d="M66.7 10.1H71.1V26.1H66.7V10.1Z" fill="#0f2b5b"/>
  <path d="M79.9 10.1H84.2L91.3 19.5V10.1H95.6V26.1H91.4L84.2 16.7V26.1H79.9V10.1Z" fill="#0f2b5b"/>
  <path d="M105.4 10.1H100.3V26.1H105.4C111.8 26.1 116.3 21.9 116.3 18.1C116.3 14.3 111.8 10.1 105.4 10.1ZM105.4 22.5H104.8V13.7H105.4C109.1 13.7 111.8 15.8 111.8 18.1C111.8 20.4 109.1 22.5 105.4 22.5Z" fill="#0f2b5b"/>
  <path d="M130.6 13.7V17.4H138.4V20.9H130.6V26.1H126.3V10.1H139.3V13.7H130.6Z" fill="#0f2b5b"/>
  <path d="M118.5 10.1H122.9V26.1H118.5V10.1Z" fill="#0f2b5b"/>
  <path d="M22.2 5.4C15.5 5.4 10.2 10.8 10.2 17.4C10.2 24 15.5 29.4 22.2 29.4C28.9 29.4 34.2 24 34.2 17.4C34.2 10.8 28.9 5.4 22.2 5.4ZM22.2 25.8C17.5 25.8 13.7 22 13.7 17.4C13.7 12.8 17.5 9 22.2 9C26.9 9 30.7 12.8 30.7 17.4C30.7 22 26.9 25.8 22.2 25.8Z" fill="#0f2b5b"/>
  <path d="M35.4 21.1L37.7 17.4L35.4 13.7C36.8 10.4 39.9 8.1 43.6 8.1V11.6C41.1 11.6 38.9 13 37.9 15.1L40.2 17.4L37.9 19.7C38.9 21.8 41.1 23.2 43.6 23.2V26.7C39.9 26.7 36.8 24.4 35.4 21.1Z" fill="#ef3340"/>
  <path d="M0.7 10.1H5.1V26.1H0.7V10.1Z" fill="#0f2b5b"/>
</svg> 